<svg width="24" height="24" viewBox="0 0 24 24" fill="none" xmlns="http://www.w3.org/2000/svg">
<path d="M2.83635 19.9209C2.27878 19.9209 2 19.8089 2 19.5847C2 19.5452 2.00648 19.5056 2.01945 19.4661C2.03242 19.4134 2.04538 19.3606 2.05835 19.3079L6.66798 6.31638C6.73282 6.10546 6.99215 6 7.44598 6H8.01003C8.46386 6 8.72319 6.10546 8.78803 6.31638L13.3977 19.3277C13.4366 19.42 13.456 19.5056 13.456 19.5847C13.456 19.8089 13.1772 19.9209 12.6197 19.9209H12.4641C12.2696 19.9209 12.101 19.9011 11.9584 19.8616C11.8157 19.8089 11.725 19.7232 11.6861 19.6045L10.5385 16.3616H4.82024L3.71159 19.6045C3.67269 19.7232 3.58193 19.8089 3.43929 19.8616C3.29666 19.9011 3.1281 19.9209 2.9336 19.9209H2.83635ZM5.36484 14.8588H10.0134L7.97113 8.9661C7.91926 8.78154 7.87388 8.59039 7.83498 8.39266C7.79608 8.19492 7.76366 8.00377 7.73773 7.81921H7.69883C7.65993 8.00377 7.61455 8.19492 7.56268 8.39266C7.52378 8.59039 7.47191 8.78154 7.40708 8.9661L5.36484 14.8588Z" fill="black"/>
<path d="M17.0014 20C16.0548 20 15.2638 19.7627 14.6285 19.2881C13.9931 18.8004 13.6754 18.049 13.6754 17.0339C13.6754 16.2034 13.8699 15.5508 14.2589 15.0763C14.6479 14.5885 15.1601 14.2326 15.7955 14.0085C16.4308 13.7712 17.1246 13.6196 17.8766 13.5537C18.6416 13.4878 19.3937 13.4482 20.1328 13.435V12.5056C20.1328 12.0574 19.9772 11.6686 19.666 11.339C19.3548 11.0094 18.7972 10.8446 17.9933 10.8446C17.4098 10.8446 16.8976 10.9171 16.4568 11.0621C16.0289 11.194 15.6853 11.3324 15.4259 11.4774C15.1796 11.6092 15.024 11.6751 14.9591 11.6751C14.8684 11.6751 14.7711 11.6092 14.6674 11.4774C14.5636 11.3456 14.4729 11.2006 14.3951 11.0424C14.3173 10.871 14.2784 10.7524 14.2784 10.6864C14.2784 10.5151 14.4469 10.3305 14.7841 10.1328C15.1212 9.93503 15.5686 9.77024 16.1261 9.63842C16.6837 9.49341 17.2866 9.4209 17.935 9.4209C18.7389 9.4209 19.4261 9.54614 19.9967 9.79661C20.5672 10.0339 21.0016 10.3832 21.2998 10.8446C21.611 11.306 21.7666 11.8663 21.7666 12.5254V16.9548C21.7666 17.4953 21.7861 17.9435 21.8249 18.2994C21.8638 18.6554 21.9028 18.9256 21.9417 19.1102C21.9806 19.2947 22 19.4068 22 19.4463C22 19.5386 21.9546 19.6177 21.8639 19.6836C21.7861 19.7363 21.6888 19.7825 21.5721 19.822C21.4554 19.8484 21.3387 19.8682 21.222 19.8814C21.1053 19.8945 21.0145 19.9011 20.9497 19.9011C20.7941 19.9011 20.6709 19.8286 20.5802 19.6836C20.5024 19.5254 20.4375 19.3409 20.3857 19.1299C20.3468 18.9058 20.3079 18.7015 20.269 18.5169C20.0226 18.7938 19.7373 19.0443 19.4132 19.2684C19.089 19.4925 18.7259 19.6704 18.324 19.8023C17.935 19.9341 17.4941 20 17.0014 20ZM17.0792 18.5565C17.7923 18.5565 18.3823 18.4181 18.8491 18.1412C19.3159 17.8644 19.7438 17.548 20.1328 17.1921V14.8588C19.6271 14.8588 19.102 14.8785 18.5574 14.9181C18.0128 14.9444 17.5006 15.0169 17.0208 15.1356C16.5411 15.2542 16.1521 15.4586 15.8538 15.7486C15.5686 16.0254 15.4259 16.4209 15.4259 16.935C15.4259 17.4623 15.5621 17.8644 15.8344 18.1412C16.1196 18.4181 16.5346 18.5565 17.0792 18.5565Z" fill="black"/>
</svg>
